<svg width="80" height="80" viewBox="0 0 80 80" fill="none" xmlns="http://www.w3.org/2000/svg">
<path fill-rule="evenodd" clip-rule="evenodd" d="M40 10C31.852 10 30.832 10.034 27.632 10.18C24.438 10.326 22.256 10.834 20.348 11.576C18.348 12.328 16.534 13.508 15.034 15.036C13.5084 16.5343 12.3277 18.347 11.574 20.348C10.836 22.256 10.326 24.44 10.18 27.634C10.036 30.832 10 31.85 10 40C10 48.15 10.034 49.168 10.18 52.368C10.326 55.562 10.834 57.744 11.576 59.652C12.328 61.652 13.508 63.466 15.036 64.966C16.5343 66.4915 18.347 67.6722 20.348 68.426C22.256 69.166 24.438 69.674 27.632 69.82C30.832 69.966 31.852 70 40 70C48.148 70 49.168 69.966 52.368 69.82C55.562 69.674 57.744 69.166 59.652 68.424C61.652 67.672 63.466 66.492 64.966 64.964C66.4916 63.4657 67.6723 61.653 68.426 59.652C69.166 57.744 69.674 55.562 69.82 52.368C69.966 49.168 70 48.148 70 40C70 31.852 69.966 30.832 69.82 27.632C69.674 24.438 69.166 22.256 68.424 20.348C67.6708 18.3461 66.4901 16.5326 64.964 15.034C63.4657 13.5084 61.653 12.3277 59.652 11.574C57.744 10.836 55.56 10.326 52.366 10.18C49.168 10.036 48.15 10 40 10ZM40 15.406C48.01 15.406 48.96 15.436 52.124 15.58C55.048 15.714 56.636 16.2 57.694 16.614C59.094 17.156 60.094 17.808 61.144 18.856C62.194 19.906 62.844 20.906 63.386 22.306C63.798 23.364 64.286 24.952 64.42 27.876C64.564 31.04 64.594 31.99 64.594 40C64.594 48.01 64.564 48.96 64.42 52.124C64.286 55.048 63.8 56.636 63.386 57.694C62.9059 58.9971 62.1398 60.176 61.144 61.144C60.1762 62.14 58.9972 62.9061 57.694 63.386C56.636 63.798 55.048 64.286 52.124 64.42C48.96 64.564 48.012 64.594 40 64.594C31.988 64.594 31.04 64.564 27.876 64.42C24.952 64.286 23.364 63.8 22.306 63.386C21.0029 62.9059 19.824 62.1398 18.856 61.144C17.8604 60.1759 17.0943 58.997 16.614 57.694C16.202 56.636 15.714 55.048 15.58 52.124C15.436 48.96 15.406 48.01 15.406 40C15.406 31.99 15.436 31.04 15.58 27.876C15.714 24.952 16.2 23.364 16.614 22.306C17.156 20.906 17.808 19.906 18.856 18.856C19.8239 17.8601 21.0028 17.094 22.306 16.614C23.364 16.202 24.952 15.714 27.876 15.58C31.04 15.436 31.99 15.406 40 15.406Z" fill="black"/>
<path fill-rule="evenodd" clip-rule="evenodd" d="M40 50.0098C38.6854 50.0098 37.3838 49.7509 36.1693 49.2478C34.9548 48.7448 33.8513 48.0074 32.9218 47.0779C31.9923 46.1484 31.255 45.0449 30.7519 43.8304C30.2489 42.616 29.99 41.3143 29.99 39.9998C29.99 38.6853 30.2489 37.3836 30.7519 36.1691C31.255 34.9547 31.9923 33.8512 32.9218 32.9216C33.8513 31.9921 34.9548 31.2548 36.1693 30.7518C37.3838 30.2487 38.6854 29.9898 40 29.9898C42.6548 29.9898 45.2009 31.0444 47.0781 32.9216C48.9553 34.7989 50.0099 37.345 50.0099 39.9998C50.0099 42.6546 48.9553 45.2007 47.0781 47.0779C45.2009 48.9552 42.6548 50.0098 40 50.0098ZM40 24.5798C35.9103 24.5798 31.9882 26.2044 29.0964 29.0962C26.2046 31.988 24.58 35.9101 24.58 39.9998C24.58 44.0894 26.2046 48.0116 29.0964 50.9034C31.9882 53.7952 35.9103 55.4198 40 55.4198C44.0896 55.4198 48.0117 53.7952 50.9035 50.9034C53.7953 48.0116 55.4199 44.0894 55.4199 39.9998C55.4199 35.9101 53.7953 31.988 50.9035 29.0962C48.0117 26.2044 44.0896 24.5798 40 24.5798ZM59.9059 24.2998C59.9059 25.2665 59.5219 26.1936 58.8384 26.8772C58.1548 27.5608 57.2277 27.9448 56.261 27.9448C55.2942 27.9448 54.3671 27.5608 53.6835 26.8772C53 26.1936 52.6159 25.2665 52.6159 24.2998C52.6159 23.3331 53 22.406 53.6835 21.7224C54.3671 21.0388 55.2942 20.6548 56.261 20.6548C57.2277 20.6548 58.1548 21.0388 58.8384 21.7224C59.5219 22.406 59.9059 23.3331 59.9059 24.2998Z" fill="black"/>
</svg>
